<svg xmlns="http://www.w3.org/2000/svg" version="1.1" xmlns:xlink="http://www.w3.org/1999/xlink" xmlns:svgjs="http://svgjs.dev/svgjs" width="1500" height="867" viewBox="0 0 1500 867"><g transform="matrix(1,0,0,1,-0.9090909090909918,-0.28327867663881534)"><svg viewBox="0 0 396 229" data-background-color="#ffffff" preserveAspectRatio="xMidYMid meet" height="867" width="1500" xmlns="http://www.w3.org/2000/svg" xmlns:xlink="http://www.w3.org/1999/xlink"><g id="tight-bounds" transform="matrix(1,0,0,1,0.2400000000000091,0.07482216487922244)"><svg viewBox="0 0 395.52 228.85035567024156" height="228.85035567024156" width="395.52"><g><svg viewBox="0 0 395.52 228.85035567024156" height="228.85035567024156" width="395.52"><g transform="matrix(1,0,0,1,0,169.33637447901899)"><svg viewBox="0 0 395.52 59.51398119122257" height="59.51398119122257" width="395.52"><g id="textblocktransform"><svg viewBox="0 0 395.52 59.51398119122257" height="59.51398119122257" width="395.52" id="textblock"><g><svg viewBox="0 0 395.52 59.51398119122257" height="59.51398119122257" width="395.52"><g transform="matrix(1,0,0,1,0,0)"><svg width="395.52" viewBox="4.15 -38 315.37 48" height="59.51398119122257" data-palette-color="#067b79"><g class="wordmark-text-0" data-fill-palette-color="primary" id="text-0"><path d="M15.95-37.5Q23.25-37.5 26.58-33.02 29.9-28.55 29.9-18.9L29.9-18.9Q29.9-9.25 26.53-4.63 23.15 0 15.95 0L15.95 0 4.15 0 4.5-7.5 4.5-30.25 4.15-37.5 15.95-37.5ZM15.95-4.9Q19-4.9 20.85-6.33 22.7-7.75 23.55-10.83 24.4-13.9 24.4-18.9L24.4-18.9Q24.4-24.05 23.55-27.03 22.7-30 20.88-31.3 19.05-32.6 15.95-32.6L15.95-32.6 9.7-32.6 9.7-4.9 15.95-4.9ZM48.35 0.6Q41.7 0.6 38.82-3.33 35.95-7.25 35.95-15.05L35.95-15.05Q35.95-22.65 39-26.73 42.05-30.8 48.35-30.8L48.35-30.8Q54.3-30.8 57.17-27.68 60.05-24.55 60.55-17.55L60.55-17.55 59.3-12.75 41.25-12.75Q41.35-9.65 42.12-7.83 42.9-6 44.6-5.1 46.3-4.2 49.3-4.2L49.3-4.2Q52.35-4.2 54.77-4.88 57.2-5.55 58.85-6.75L58.85-6.75 59.7-6.35 58.6-1.95Q56.75-0.6 54.4 0 52.05 0.6 48.35 0.6L48.35 0.6ZM41.2-16.95L55.35-16.95Q55.35-21.75 53.77-23.83 52.2-25.9 48.55-25.9L48.55-25.9Q45.9-25.9 44.32-25.03 42.75-24.15 42.02-22.2 41.3-20.25 41.2-16.95L41.2-16.95ZM79.25-30.35Q82.85-30.35 84.25-29.65L84.25-29.65 83.45-25.25 82.8-24.8Q82.2-25.25 80.85-25.55 79.5-25.85 78.1-25.85L78.1-25.85Q74.4-25.85 72.3-22.8L72.3-22.8 72.3-7.5 72.65 0 66.95 0 67.3-7.5 67.3-22.75 66.95-30 71.3-30 72.2-26.6Q73.45-28.4 75.3-29.38 77.15-30.35 79.25-30.35L79.25-30.35ZM106.44 0L106.79-7.5 106.79-20.7Q106.79-25.8 102.24-25.8L102.24-25.8Q100.34-25.8 98.24-24.73 96.14-23.65 95.04-21.9L95.04-21.9 95.04-7.5 95.39 0 89.69 0 90.04-7.5 90.04-22.75 89.69-30 94.04-30 95.04-26Q96.39-28.05 98.87-29.2 101.34-30.35 104.19-30.35L104.19-30.35Q107.74-30.35 109.77-28.13 111.79-25.9 111.79-21.85L111.79-21.85 111.79-7.5 112.14 0 106.44 0Z" fill="#067b79" data-fill-palette-color="primary"></path><path d="M139.04 0.55Q135.34 0.55 132.41-0.53 129.49-1.6 126.89-4.05L126.89-4.05 126.14-9.1 126.84-9.3Q132.49-4.5 138.34-4.5L138.34-4.5Q142.04-4.5 144.09-5.9 146.14-7.3 146.14-9.7L146.14-9.7Q146.14-11.35 145.41-12.4 144.69-13.45 142.79-14.3 140.89-15.15 137.14-16.1L137.14-16.1Q131.39-17.65 128.96-20.15 126.54-22.65 126.54-27.1L126.54-27.1Q126.54-32.15 129.76-35.08 132.99-38 138.69-38L138.69-38Q142.09-38 145.19-36.98 148.29-35.95 150.24-34.15L150.24-34.15 149.49-29.25 148.74-29.05Q147.24-30.75 144.61-31.85 141.99-32.95 139.34-32.95L139.34-32.95Q135.69-32.95 133.81-31.6 131.94-30.25 131.94-27.65L131.94-27.65Q131.94-25.85 132.69-24.7 133.44-23.55 135.21-22.7 136.99-21.85 140.29-21L140.29-21Q144.54-19.9 146.96-18.53 149.39-17.15 150.46-15.2 151.54-13.25 151.54-10.35L151.54-10.35Q151.54-5.2 148.16-2.33 144.79 0.55 139.04 0.55L139.04 0.55ZM179.89-22.5L179.89-7.3 180.24 0 175.09 0 174.84-3.95Q173.49-1.85 171.01-0.63 168.54 0.6 165.79 0.6L165.79 0.6Q162.24 0.6 160.19-1.7 158.14-4 158.14-8.15L158.14-8.15 158.14-22.5 157.84-30 163.49-30 163.14-22.5 163.14-9.3Q163.14-3.95 167.74-3.95L167.74-3.95Q169.54-3.95 171.64-5.15 173.74-6.35 174.89-8.1L174.89-8.1 174.89-22.5 174.59-30 180.24-30 179.89-22.5ZM200.43-30.6Q206.03-30.6 208.76-26.85 211.48-23.1 211.48-15.05L211.48-15.05Q211.48-7.45 208.56-3.53 205.63 0.4 200.18 0.4L200.18 0.4Q198.13 0.4 196.26-0.6 194.38-1.6 193.38-3.25L193.38-3.25 193.38 2.5 193.73 10 188.03 10 188.38 2.5 188.38-22.55 188.03-30 192.73-30 192.98-28.35Q195.78-30.6 200.43-30.6L200.43-30.6ZM199.63-4.4Q203.18-4.4 204.73-6.85 206.28-9.3 206.28-15.05L206.28-15.05Q206.28-19.25 205.61-21.55 204.93-23.85 203.41-24.8 201.88-25.75 199.18-25.75L199.18-25.75Q195.43-25.75 193.38-24.7L193.38-24.7 193.38-6.55Q195.38-4.4 199.63-4.4L199.63-4.4ZM230.78-30.6Q236.38-30.6 239.11-26.85 241.83-23.1 241.83-15.05L241.83-15.05Q241.83-7.45 238.91-3.53 235.98 0.4 230.53 0.4L230.53 0.4Q228.48 0.4 226.61-0.6 224.73-1.6 223.73-3.25L223.73-3.25 223.73 2.5 224.08 10 218.38 10 218.73 2.5 218.73-22.55 218.38-30 223.08-30 223.33-28.35Q226.13-30.6 230.78-30.6L230.78-30.6ZM229.98-4.4Q233.53-4.4 235.08-6.85 236.63-9.3 236.63-15.05L236.63-15.05Q236.63-19.25 235.95-21.55 235.28-23.85 233.76-24.8 232.23-25.75 229.53-25.75L229.53-25.75Q225.78-25.75 223.73-24.7L223.73-24.7 223.73-6.55Q225.73-4.4 229.98-4.4L229.98-4.4ZM260.33 0.8Q253.88 0.8 250.85-3.13 247.83-7.05 247.83-15.05L247.83-15.05Q247.83-23.05 250.85-26.93 253.88-30.8 260.33-30.8L260.33-30.8Q266.78-30.8 269.8-26.93 272.83-23.05 272.83-15.05L272.83-15.05Q272.83-7.05 269.8-3.13 266.78 0.8 260.33 0.8L260.33 0.8ZM260.33-4.1Q263.18-4.1 264.75-5.1 266.33-6.1 266.98-8.43 267.63-10.75 267.63-15L267.63-15Q267.63-19.25 266.98-21.58 266.33-23.9 264.75-24.9 263.18-25.9 260.33-25.9L260.33-25.9Q257.48-25.9 255.9-24.9 254.33-23.9 253.68-21.58 253.03-19.25 253.03-15L253.03-15Q253.03-10.75 253.68-8.43 254.33-6.1 255.9-5.1 257.48-4.1 260.33-4.1L260.33-4.1ZM291.97-30.35Q295.58-30.35 296.97-29.65L296.97-29.65 296.17-25.25 295.52-24.8Q294.92-25.25 293.58-25.55 292.22-25.85 290.83-25.85L290.83-25.85Q287.12-25.85 285.02-22.8L285.02-22.8 285.02-7.5 285.37 0 279.67 0 280.02-7.5 280.02-22.75 279.67-30 284.02-30 284.92-26.6Q286.17-28.4 288.02-29.38 289.87-30.35 291.97-30.35L291.97-30.35ZM301.52-25.3L301.52-28.55 304.72-30 306.22-36.25 309.72-36.25 309.72-30 318.27-30 318.27-25.3 309.72-25.3 309.72-8.8Q309.72-6.45 310.57-5.38 311.42-4.3 313.22-4.3L313.22-4.3Q314.92-4.3 316.47-5 318.02-5.7 318.77-6.8L318.77-6.8 319.52-6.5 318.42-2.2Q315.62 0.6 312.12 0.6L312.12 0.6Q308.27 0.6 306.5-1.78 304.72-4.15 304.72-9.6L304.72-9.6 304.72-25.3 301.52-25.3Z" fill="#ff5db2" data-fill-palette-color="secondary"></path></g></svg></g></svg></g></svg></g></svg></g><g transform="matrix(1,0,0,1,127.14163538418956,0)"><svg viewBox="0 0 141.23672923162087 141.23672923162087" height="141.23672923162087" width="141.23672923162087"><g><svg></svg></g><g id="icon-0"><svg viewBox="0 0 141.23672923162087 141.23672923162087" height="141.23672923162087" width="141.23672923162087"><g><path d="M0 70.618c0-39.001 31.617-70.618 70.618-70.618 39.001 0 70.618 31.617 70.619 70.618 0 39.001-31.617 70.618-70.619 70.619-39.001 0-70.618-31.617-70.618-70.619zM70.618 135.87c36.037 0 65.251-29.214 65.252-65.252 0-36.037-29.214-65.251-65.252-65.251-36.037 0-65.251 29.214-65.251 65.251 0 36.037 29.214 65.251 65.251 65.252z" data-fill-palette-color="accent" fill="#000000" stroke="transparent"></path></g><g transform="matrix(1,0,0,1,33.12065862254322,33.12065862254322)"><svg viewBox="0 0 74.99541198653444 74.99541198653444" height="74.99541198653444" width="74.99541198653444"><g><svg xmlns="http://www.w3.org/2000/svg" xmlns:xlink="http://www.w3.org/1999/xlink" version="1.1" x="0" y="0" viewBox="5.1 5.3 89.9 89.9" style="enable-background:new 0 0 100 100;" xml:space="preserve" height="74.99541198653444" width="74.99541198653444" class="icon-dxe-0" data-fill-palette-color="accent" id="dxe-0"><path d="M93.3 42.4L84.6 39.3 82.2 33.4 86.2 25.1C86.7 24.1 86.5 23 85.7 22.3L78 14.6C77.3 13.9 76.1 13.7 75.2 14.1L66.9 18.1 61 15.7 57.9 7C57.5 6 56.6 5.3 55.5 5.3H44.6C43.5 5.3 42.6 6 42.2 7L39.1 15.7 33.2 18.1 24.9 14.1C23.9 13.6 22.8 13.8 22.1 14.6L14.4 22.3C13.7 23 13.5 24.2 13.9 25.1L17.9 33.4 15.5 39.3 6.8 42.4C5.8 42.8 5.1 43.7 5.1 44.8V55.7C5.1 56.8 5.8 57.7 6.8 58.1L15.5 61.2 17.9 67.1 13.9 75.4C13.4 76.4 13.6 77.5 14.4 78.2L22.1 85.9C22.8 86.6 24 86.8 24.9 86.4L33.2 82.4 39.1 84.8 42.2 93.5C42.6 94.5 43.5 95.2 44.6 95.2H55.5C56.6 95.2 57.5 94.5 57.9 93.5L61 84.8 66.9 82.4 75.2 86.4C76.2 86.9 77.3 86.7 78 85.9L85.7 78.2C86.4 77.5 86.6 76.3 86.2 75.4L82.2 67.1 84.6 61.2 93.3 58.1C94.3 57.7 95 56.8 95 55.7V44.8C95 43.7 94.3 42.8 93.3 42.4M90 53.9L81.9 56.8C81.2 57 80.7 57.5 80.4 58.2L77.1 66.1C76.8 66.8 76.8 67.5 77.2 68.1L80.9 75.9 75.7 81.1 67.9 77.4C67.3 77.1 66.5 77.1 65.9 77.3L58 80.7C57.3 81 56.8 81.5 56.6 82.2L53.7 90.3H46.3L43.4 82.2C43.2 81.5 42.7 81 42 80.7L34.1 77.4C33.4 77.1 32.7 77.1 32.1 77.5L24.3 81.2 19.1 76 22.8 68.2C23.1 67.6 23.1 66.8 22.9 66.2L19.6 58.3C19.3 57.6 18.8 57.1 18.1 56.9L10 53.9V46.5L18.1 43.6C18.8 43.4 19.3 42.9 19.6 42.2L22.9 34.3C23.2 33.6 23.2 32.9 22.8 32.3L19.1 24.5 24.3 19.3 32.1 23C32.7 23.3 33.5 23.3 34.1 23.1L42 19.8C42.7 19.5 43.2 19 43.4 18.3L46.3 10.2H53.7L56.6 18.3C56.8 19 57.3 19.5 58 19.8L65.9 23.1C66.6 23.4 67.3 23.4 67.9 23L75.7 19.3 80.9 24.5 77.2 32.3C76.9 32.9 76.9 33.7 77.1 34.3L80.4 42.2C80.7 42.9 81.2 43.4 81.9 43.6L90 46.5z" fill="#000000" data-fill-palette-color="accent"></path><path d="M67.6 58.8L58.7 51.9C58.5 51 58 50.1 57.3 49.6L59.5 47.4C60.1 47.5 60.7 47.6 61.3 47.6 64.3 47.6 67.3 46 68.9 43.2 70.6 40.3 70.4 36.6 68.5 33.9 68.3 33.5 67.8 33.4 67.4 33.4S66.6 33.7 66.4 34L64.4 37.4H62L61 35.3 63 31.9C63.2 31.5 63.2 31.1 63 30.7S62.4 30.1 62 30C58.6 29.7 55.4 31.4 53.7 34.3 52.6 36.2 52.3 38.4 52.7 40.5L48.8 44.4 40 35.7V33.7C40 33.2 39.7 32.8 39.3 32.6L34.3 30.1C33.8 29.9 33.2 30 32.9 30.3L30.4 32.8C30 33.2 29.9 33.8 30.2 34.2L32.7 39.2C32.9 39.6 33.3 39.9 33.8 39.9H35.8L44.6 48.7 40.7 52.6C39.4 52.3 38 52.3 36.6 52.7 34.3 53.3 32.5 54.8 31.3 56.8 29.6 59.7 29.8 63.4 31.7 66.1 31.9 66.5 32.4 66.7 32.8 66.6 33.2 66.6 33.6 66.3 33.8 66L35.8 62.6 38.2 62.4 39.2 64.5 37.2 67.9C37 68.3 37 68.7 37.2 69.1S37.8 69.7 38.2 69.8H38.9C42 69.8 44.9 68.1 46.5 65.4 47.6 63.5 47.9 61.3 47.5 59.2L49.7 57C50.3 57.7 51.1 58.3 52 58.4L58.9 67.3C60.1 68.8 61.9 69.7 63.9 69.7 67.4 69.7 70.2 66.9 70.2 63.4 70 61.8 69.1 60 67.6 58.8M55.8 35.6C56.6 34.2 58 33.2 59.5 32.7L58.4 34.6C58.2 35 58.2 35.4 58.4 35.8L60.1 39.3C60.3 39.8 60.8 40 61.3 40L65.2 39.8C65.6 39.8 66 39.5 66.2 39.2L67.3 37.3C67.7 38.9 67.5 40.5 66.7 42 65 45 61.1 46 58.2 44.3 55.1 42.4 54.1 38.6 55.8 35.6M53.7 43.1C54.4 44.4 55.5 45.5 56.9 46.3L54.1 49.1 53.7 49.5 50.5 46.3zM44.2 64.4C43.4 65.8 42 66.8 40.5 67.3L41.6 65.4C41.8 65 41.8 64.6 41.6 64.2L39.9 60.7C39.7 60.3 39.3 60 38.8 60H38.7L34.8 60.2C34.4 60.2 34 60.5 33.8 60.8L32.7 62.7C32.3 61.1 32.5 59.5 33.3 58 34.1 56.6 35.5 55.5 37.1 55.1S40.4 54.9 41.8 55.7C44.9 57.6 45.9 61.4 44.2 64.4M49.1 54.1L46.3 56.9C45.6 55.6 44.5 54.5 43.1 53.7L46.2 50.6 49.4 53.8zM37.1 37.9C36.9 37.7 36.5 37.5 36.2 37.5H34.5L32.8 34 34 32.8 37.5 34.6V36.3C37.5 36.6 37.6 36.9 37.9 37.2L52 51.3 51.3 52zM51.3 55.4L55.4 51.3C55.7 51.4 56 51.7 56.1 52L52 56.1C51.7 56 51.5 55.8 51.3 55.4M63.7 67.5C62.5 67.5 61.4 67 60.7 66L54.1 57.6 57.5 54.2 65.9 60.8C66.8 61.5 67.4 62.6 67.4 63.8 67.5 65.8 65.8 67.5 63.7 67.5" fill="#000000" data-fill-palette-color="accent"></path></svg></g></svg></g></svg></g></svg></g><g></g></svg></g><defs></defs></svg><rect width="395.52" height="228.85035567024156" fill="none" stroke="none" visibility="hidden"></rect></g></svg></g></svg>